Coordinates
version=1
nRows=7
nColumns=60
inDegrees=yes

Units are S.I. units (second, meters, Newtons, ...)
If the header above contains a line with 'inDegrees', this indicates whether rotational values are in degrees (yes) or radians (no).

endheader
time	pelvis_tilt	pelvis_list	pelvis_rotation	pelvis_tx	pelvis_ty	pelvis_tz	hip_flexion_r	hip_adduction_r	hip_rotation_r	knee_angle_r_beta	knee_angle_r	ankle_angle_r	subtalar_angle_r	mtp_angle_r	hip_flexion_l	hip_adduction_l	hip_rotation_l	knee_angle_l_beta	knee_angle_l	ankle_angle_l	subtalar_angle_l	mtp_angle_l	L5_S1_Flex_Ext	L5_S1_Lat_Bending	L5_S1_axial_rotation	L4_L5_Flex_Ext	L4_L5_Lat_Bending	L4_L5_axial_rotation	L3_L4_Flex_Ext	L3_L4_Lat_Bending	L3_L4_axial_rotation	L2_L3_Flex_Ext	L2_L3_Lat_Bending	L2_L3_axial_rotation	L1_L2_Flex_Ext	L1_L2_Lat_Bending	L1_L2_axial_rotation	L1_T12_Flex_Ext	L1_T12_Lat_Bending	L1_T12_axial_rotation	Abs_r3	Abs_r2	Abs_r1	Abs_t1	Abs_t2	arm_flex_r	arm_add_r	arm_rot_r	elbow_flex_r	pro_sup_r	wrist_flex_r	wrist_dev_r	arm_flex_l	arm_add_l	arm_rot_l	elbow_flex_l	pro_sup_l	wrist_flex_l	wrist_dev_l
    104.32000000	      0.27612015	     -0.59385700	     93.11181572	      0.41117443	      0.93150798	      0.30400560	     13.16378000	     -4.28797806	      1.05105179	      0.29311062	    -16.79400152	      6.41393649	      0.00000000	      0.00000000	     12.35558482	     -5.78517320	      0.78998018	      0.21179539	    -12.13498181	      4.17574061	      0.00000000	      0.00000000	     -6.68201334	      0.08000748	     -0.25786323	    -12.40916697	      0.10640995	     -0.27397969	    -10.97787971	      0.19453019	     -0.27397969	     -7.63687304	      0.19453019	     -0.22563033	     -6.20491758	      0.16315126	     -0.20951388	     -3.81810242	      0.12393159	     -0.19339743	    -47.72895307	      0.90506063	     -1.43415795	      0.00000000	      0.00000000	     82.26021109	    -17.69856009	     18.80548308	     40.16439894	     57.56697921	     21.90036349	     19.64353834	     86.05365025	    -15.40556587	     26.16852788	     35.83878110	     56.25023502	     24.76664380	     15.94100371
    104.33000000	      0.30051569	     -0.68866434	     93.09593868	      0.41133205	      0.93112505	      0.30636940	     13.40990632	     -4.25804476	      1.03435712	      0.29201129	    -16.73101422	      6.40151525	      0.00000000	      0.00000000	     12.58985514	     -5.80911853	      0.77132711	      0.21075797	    -12.07554245	      4.16135684	      0.00000000	      0.00000000	     -6.70418401	      0.07724103	     -0.25900438	    -12.45034012	      0.10273057	     -0.27519216	    -11.01430391	      0.18780384	     -0.27519216	     -7.66221190	      0.18780384	     -0.22662884	     -6.22550527	      0.15750991	     -0.21044106	     -3.83077074	      0.11964636	     -0.19425329	    -47.88731596	      0.87376598	     -1.44050468	      0.00000000	      0.00000000	     82.64360344	    -17.64393726	     18.76396139	     40.20292602	     57.56525026	     21.89668897	     19.62566452	     86.44792853	    -15.42156984	     26.12224394	     35.86885478	     56.24769103	     24.76211820	     15.92528470
    104.34000000	      0.33935898	     -0.80891753	     93.07720081	      0.41147709	      0.93070359	      0.30902259	     13.79879341	     -4.20433091	      1.19321305	      0.29430355	    -16.86235130	      6.08889208	      0.00000000	      0.00000000	     12.98987472	     -5.84226513	      0.83714697	      0.21364747	    -12.24109846	      3.82506135	      0.00000000	      0.00000000	     -6.71166185	      0.07557313	     -0.26864448	    -12.46422722	      0.10051227	     -0.28543476	    -11.02658925	      0.18374852	     -0.28543476	     -7.67075832	      0.18374852	     -0.23506392	     -6.23244919	      0.15410873	     -0.21827364	     -3.83504358	      0.11706278	     -0.20148336	    -47.94072940	      0.85489840	     -1.49412003	      0.00000000	      0.00000000	     83.23591985	    -17.36699853	     18.78098146	     39.56299639	     57.51647879	     21.84319999	     19.57371705	     86.96500884	    -15.41626354	     26.26942209	     35.45489644	     56.16259761	     24.73248091	     15.94942857
    104.35000000	      0.35444982	     -0.87034913	     93.06431191	      0.41153150	      0.93036371	      0.31138261	     14.00785671	     -4.19991256	      1.15717774	      0.29318227	    -16.79810677	      6.08863863	      0.00000000	      0.00000000	     13.19392434	     -5.85413532	      0.80861223	      0.21274960	    -12.18965399	      3.82172648	      0.00000000	      0.00000000	     -6.72388559	      0.07247453	     -0.27055128	    -12.48692792	      0.09639112	     -0.28746074	    -11.04667163	      0.17621457	     -0.28746074	     -7.68472884	      0.17621457	     -0.23673237	     -6.24380016	      0.14779006	     -0.21982292	     -3.84202822	      0.11226304	     -0.20291346	    -48.02804235	      0.81984636	     -1.50472507	      0.00000000	      0.00000000	     83.56062110	    -17.34822673	     18.75488439	     39.54221260	     57.50445626	     21.83564213	     19.55252216	     87.30333698	    -15.41379846	     26.25314160	     35.45763033	     56.13780543	     24.72693201	     15.94391204
    104.36000000	      0.36760630	     -0.98533333	     93.06239887	      0.41156473	      0.92993567	      0.31395309	     14.37137614	     -4.19514041	      1.22551317	      0.29507758	    -16.90669983	      5.77392636	      0.00000000	      0.00000000	     13.60503487	     -5.84705697	      0.82634439	      0.21657013	    -12.40855449	      3.50427948	      0.00000000	      0.00000000	     -6.70819263	      0.06895471	     -0.28012273	    -12.45778453	      0.09170976	     -0.29763040	    -11.02088966	      0.16765647	     -0.29763040	     -7.66679335	      0.16765647	     -0.24510739	     -6.22922767	      0.14061244	     -0.22759972	     -3.83306127	      0.10681084	     -0.21009204	    -47.91594911	      0.78002942	     -1.55795857	      0.00000000	      0.00000000	     84.12083322	    -17.09828632	     19.08966584	     38.63262968	     57.38248057	     21.76023685	     19.46540217	     87.86960515	    -15.27192480	     26.71208801	     34.65066810	     55.85038329	     24.64754963	     16.08169130
    104.37000000	      0.38283892	     -1.00086658	     93.04488658	      0.41158036	      0.92969975	      0.31621886	     14.52387762	     -4.18682856	      1.19188517	      0.29409872	    -16.85061568	      5.77407853	      0.00000000	      0.00000000	     13.75905095	     -5.85920168	      0.80057485	      0.21576547	    -12.36245075	      3.50957618	      0.00000000	      0.00000000	     -6.71288171	      0.06691364	     -0.28109003	    -12.46649262	      0.08899514	     -0.29865815	    -11.02859336	      0.16269382	     -0.29865815	     -7.67215251	      0.16269382	     -0.24595377	     -6.23358195	      0.13645029	     -0.22838565	     -3.83574061	      0.10364922	     -0.21081752	    -47.94944276	      0.75694044	     -1.56333841	      0.00000000	      0.00000000	     84.39352131	    -17.12606334	     19.10201873	     38.61994005	     57.36634841	     21.75281980	     19.44439033	     88.15993154	    -15.29399715	     26.72712282	     34.62692120	     55.81089443	     24.63566571	     16.08850270
    104.38000000	      0.42782806	     -1.05975231	     93.03243965	      0.41154664	      0.92940494	      0.31860910	     14.76969000	     -4.15324990	      1.20150172	      0.29436087	    -16.86563540	      5.38938325	      0.00000000	      0.00000000	     14.07629365	     -5.89932031	      0.79170834	      0.21864770	    -12.52759026	      3.21933814	      0.00000000	      0.00000000	     -6.69019659	      0.06889026	     -0.27663644	    -12.42436409	      0.09162404	     -0.29392621	    -10.99132398	      0.16749977	     -0.29392621	     -7.64622568	      0.16749977	     -0.24205688	     -6.21251655	      0.14048102	     -0.22476711	     -3.82277833	      0.10671101	     -0.20747733	    -47.78740523	      0.77930038	     -1.53856887	      0.00000000	      0.00000000	     84.95781547	    -17.10635916	     20.00027896	     37.69552095	     57.20838256	     21.66104133	     19.36840833	     88.80130717	    -15.08764033	     27.65549560	     33.50761168	     55.36579482	     24.46564704	     16.37237184
